<?xml version="1.0" encoding="utf-8"?>
<!-- Generator: Adobe Illustrator 18.1.0, SVG Export Plug-In . SVG Version: 6.00 Build 0)  -->
<!DOCTYPE svg PUBLIC "-//W3C//DTD SVG 1.1//EN" "http://www.w3.org/Graphics/SVG/1.1/DTD/svg11.dtd">
<svg version="1.1" id="Layer_1" xmlns="http://www.w3.org/2000/svg" xmlns:xlink="http://www.w3.org/1999/xlink" x="0px" y="0px"
	 viewBox="0 0 32.5 25" enable-background="new 0 0 32.5 25" xml:space="preserve">
<path fill="#C9A29A" d="M30.9,0H1.5C0.7,0,0,0.7,0,1.5v21.8c0,0.9,0.7,1.5,1.5,1.5h29.4c0.9,0,1.5-0.7,1.5-1.5V1.5
	C32.5,0.7,31.8,0,30.9,0z M1.5,1.2h29.4c0.2,0,0.4,0.2,0.4,0.4v4.6H1.2V1.5C1.2,1.3,1.3,1.2,1.5,1.2z M25.2,7.1v5h-5.4v-5H25.2z
	 M18.9,12.1h-5.4v-5h5.4V12.1z M18.9,13v5h-5.4v-5H18.9z M12.7,12.1H7.3v-5h5.4V12.1z M6.4,12.1H1.2v-5h5.2V12.1z M6.4,13v5H1.2v-5
	H6.4z M7.3,13h5.4v5H7.3V13z M12.7,18.9v4.9H7.3v-4.9H12.7z M13.6,18.9h5.4v4.9h-5.4V18.9z M19.8,18.9h5.4v4.9h-5.4V18.9z M19.8,18
	v-5h5.4v5H19.8z M26.1,13h5.2v5h-5.2V13z M26.1,12.1v-5h5.2v5H26.1z M1.2,23.4v-4.5h5.2v4.9H1.5C1.3,23.7,1.2,23.6,1.2,23.4z
	 M30.9,23.7h-4.9v-4.9h5.2v4.5C31.3,23.6,31.2,23.7,30.9,23.7z"/>
</svg>
