<?xml version="1.0" encoding="utf-8"?>
<!-- Generator: Adobe Illustrator 18.1.0, SVG Export Plug-In . SVG Version: 6.00 Build 0)  -->
<!DOCTYPE svg PUBLIC "-//W3C//DTD SVG 1.1//EN" "http://www.w3.org/Graphics/SVG/1.1/DTD/svg11.dtd">
<svg version="1.1" id="Layer_1" xmlns="http://www.w3.org/2000/svg" xmlns:xlink="http://www.w3.org/1999/xlink" x="0px" y="0px"
	 viewBox="0 0 25.1 25" enable-background="new 0 0 25.1 25" xml:space="preserve">
<g>
	<path fill="#C9A29A" d="M12.6-0.2C5.6-0.2,0,5.5,0,12.4S5.6,25,12.6,25s12.6-5.6,12.6-12.6S19.5-0.2,12.6-0.2z M12.6,24
		C6.2,24,1,18.8,1,12.4S6.2,0.8,12.6,0.8S24.2,6,24.2,12.4S19,24,12.6,24z"/>
	<path fill="#C9A29A" d="M12.4,16.7c-0.5,0-0.9,0.4-0.9,0.9c0,0.5,0.4,0.9,0.9,0.9s0.9-0.4,0.9-0.9C13.3,17.1,12.9,16.7,12.4,16.7z"
		/>
	<path fill="#C9A29A" d="M12.5,6.4c-1.6,0-2.9,1-3.3,2.3l0.9,0.3c0.2-0.9,1.2-1.6,2.4-1.6c1.4,0,2.4,0.9,2.4,2.1
		c0,0.9-0.6,1.6-1.2,2c-1,0.7-2.2,1.1-2.2,2.3c0,0.6,0.2,1,0.8,1.6l0.7-0.7c-0.3-0.3-0.6-0.6-0.6-0.9c0-0.5,0.9-0.9,1.7-1.5
		c0.8-0.6,1.6-1.4,1.6-2.8C15.9,7.7,14.5,6.4,12.5,6.4z"/>
</g>
</svg>
