<?xml version="1.0" encoding="utf-8"?>
<!-- Generator: Adobe Illustrator 18.1.0, SVG Export Plug-In . SVG Version: 6.00 Build 0)  -->
<!DOCTYPE svg PUBLIC "-//W3C//DTD SVG 1.1//EN" "http://www.w3.org/Graphics/SVG/1.1/DTD/svg11.dtd">
<svg version="1.1" id="Layer_1" xmlns="http://www.w3.org/2000/svg" xmlns:xlink="http://www.w3.org/1999/xlink" x="0px" y="0px"
	 viewBox="0 0 120 120" enable-background="new 0 0 120 120" xml:space="preserve">
<path fill="#C9A29A" d="M86.8,84.6L55.2,59.6l33.3-22.5L88.5,37l0.4-0.3C78.8,21.6,60.9,15,43.4,19.9c-17.5,4.9-29.3,19.9-30,38.1
	l0,0c-0.7,18.2,9.9,34,26.9,40.3c4.8,1.8,9.8,2.6,14.6,2.6c12.3,0,24-5.6,32.1-15.8l-0.4-0.3L86.8,84.6z M86.1,37.9L54.8,59
	L44.6,22.7C60.5,18.4,76.7,24.3,86.1,37.9z M43.9,22.9l10.2,36.3l-37.7-1.5C17.2,41.2,27.9,27.6,43.9,22.9z M16.4,58.5L54.1,60
	L41,95.4C25.5,89.5,15.9,75.1,16.4,58.5z M41.7,95.6l13.1-35.4l29.6,23.4C74,96.5,57.3,101.2,41.7,95.6z"/>
<path fill="#C9A29A" d="M103.9,39.8l-0.2-0.3L73.3,59.8L102,82.5l0.2-0.3C112.1,69.7,112.8,53.1,103.9,39.8z M101.9,81.4L74.6,59.9
	l28.9-19.3C111.9,53.4,111.3,69.3,101.9,81.4z"/>
</svg>
