<?xml version="1.0" encoding="utf-8"?>
<!-- Generator: Adobe Illustrator 18.1.0, SVG Export Plug-In . SVG Version: 6.00 Build 0)  -->
<!DOCTYPE svg PUBLIC "-//W3C//DTD SVG 1.1//EN" "http://www.w3.org/Graphics/SVG/1.1/DTD/svg11.dtd">
<svg version="1.1" id="Layer_1" xmlns="http://www.w3.org/2000/svg" xmlns:xlink="http://www.w3.org/1999/xlink" x="0px" y="0px"
	 viewBox="0 0 19.6 25" enable-background="new 0 0 19.6 25" xml:space="preserve">
<path fill="#C9A29A" d="M18.7,9.5H15c-0.2-2.9-0.8-6.5-2.5-8.3C11.8,0.4,10.9,0,9.8,0S7.9,0.4,7.1,1.2C5.4,3,4.8,6.7,4.6,9.5H0.9
	C0.4,9.5,0,9.9,0,10.4v10.7c0,0.9,2.1,2.8,3.4,3.8L3.5,25h12.6l0.1-0.1c1.3-1,3.4-2.9,3.4-3.8V10.4C19.6,9.9,19.2,9.5,18.7,9.5z
	 M7.8,1.8c0.6-0.6,1.2-0.9,2-0.9c0.8,0,1.4,0.3,2,0.9c1.5,1.6,2.1,5,2.3,7.7H5.5C5.7,6.8,6.3,3.5,7.8,1.8z M15.8,24.1H3.9
	c-1.4-1.1-2.9-2.6-2.9-3l0-10.7h3.6c0,1,0,1.9,0,2.4C4.2,13,4,13.4,4,13.8c0,0.6,0.5,1.1,1.1,1.1c0.6,0,1.1-0.5,1.1-1.1
	c0-0.5-0.3-0.8-0.7-1c0-0.5,0-1.4,0-2.4h8.3l0.4,0c0,1,0,1.8,0,2.4c-0.4,0.2-0.6,0.5-0.6,1c0,0.6,0.5,1.1,1.1,1.1
	c0.6,0,1.1-0.5,1.1-1.1c0-0.4-0.2-0.8-0.6-1c0-0.6,0-1.4,0-2.4l3.6,0l0,10.7C18.6,21.5,17.2,22.9,15.8,24.1z"/>
</svg>
