<?xml version="1.0" encoding="utf-8"?>
<!-- Generator: Adobe Illustrator 18.1.0, SVG Export Plug-In . SVG Version: 6.00 Build 0)  -->
<!DOCTYPE svg PUBLIC "-//W3C//DTD SVG 1.1//EN" "http://www.w3.org/Graphics/SVG/1.1/DTD/svg11.dtd">
<svg version="1.1" id="Layer_1" xmlns="http://www.w3.org/2000/svg" xmlns:xlink="http://www.w3.org/1999/xlink" x="0px" y="0px"
	 viewBox="0 0 120 120" enable-background="new 0 0 120 120" xml:space="preserve">
<g>
	<path fill="#C9A29A" d="M92,29.7H76.8v-4.8c0-0.8-0.7-1.5-1.5-1.5s-1.5,0.7-1.5,1.5v4.8H46.2v-4.8c0-0.8-0.7-1.5-1.5-1.5
		s-1.5,0.7-1.5,1.5v4.8H28c-2.4,0-4.3,1.9-4.3,4.3v59.7c0,2.4,1.9,4.3,4.3,4.3h64c2.4,0,4.3-1.9,4.3-4.3V34
		C96.3,31.6,94.4,29.7,92,29.7z M93.3,93.7c0,0.7-0.6,1.3-1.3,1.3H28c-0.7,0-1.3-0.6-1.3-1.3V47.2h66.6V93.7z M93.3,46.4H26.7V34
		c0-0.7,0.6-1.3,1.3-1.3h64c0.7,0,1.3,0.6,1.3,1.3V46.4z"/>
	<polygon fill="#C9A29A" points="48.3,82.2 49,82.9 59.5,72.4 59.5,87.3 60.5,87.3 60.5,72.4 71,82.9 71.7,82.2 61.2,71.7 
		76.1,71.7 76.1,70.7 61.2,70.7 71.7,60.2 71,59.5 60.5,70 60.5,55.1 59.5,55.1 59.5,70 49,59.5 48.3,60.2 58.8,70.7 43.9,70.7 
		43.9,71.7 58.8,71.7 	"/>
</g>
</svg>
