<?xml version="1.0" encoding="utf-8"?>
<!-- Generator: Adobe Illustrator 18.1.0, SVG Export Plug-In . SVG Version: 6.00 Build 0)  -->
<!DOCTYPE svg PUBLIC "-//W3C//DTD SVG 1.1//EN" "http://www.w3.org/Graphics/SVG/1.1/DTD/svg11.dtd">
<svg version="1.1" id="Layer_1" xmlns="http://www.w3.org/2000/svg" xmlns:xlink="http://www.w3.org/1999/xlink" x="0px" y="0px"
	 viewBox="0 0 120 120" enable-background="new 0 0 120 120" xml:space="preserve">
<path fill="#C9A29A" d="M102.9,26.8H17.1c-2.4,0-4.3,1.9-4.3,4.3v63.7c0,2.4,1.9,4.3,4.3,4.3h85.8c2.4,0,4.3-1.9,4.3-4.3V31.1
	C107.2,28.8,105.3,26.8,102.9,26.8z M17.1,29.8h85.8c0.7,0,1.3,0.6,1.3,1.3V45H15.8V31.1C15.8,30.4,16.4,29.8,17.1,29.8z M40.8,58.8
	h12.3v12.3H40.8V58.8z M40,71.1H27.7V58.8H40V71.1z M66.9,60.2l4.7,4.7l-4.7,4.7V60.2z M66.9,71.1L66.9,71.1L66.9,71.1L66.9,71.1z
	 M73.1,66.4l4.8,4.8h-9.5L73.1,66.4z M74.5,65l4.7-4.7v9.5L74.5,65z M73.1,63.5l-4.7-4.7h9.5L73.1,63.5z M66.2,59.5v11.7H53.8V58.8
	h12.3l-0.3,0.3L66.2,59.5z M53.1,71.9v12.3H40.8V71.9H53.1z M53.8,71.9h12.3v12.3H53.8V71.9z M66.9,71.9h11.7l0.3,0.3l0.3-0.3h0
	v12.3H66.9V71.9z M80,70.5v-11l0.3-0.3L80,58.8h12.3v12.3H80l0.3-0.3L80,70.5z M80,58V45.7h12.3V58H80z M79.2,58l-0.3-0.3L78.6,58
	h-11l-0.3-0.3L66.9,58h0V45.7h12.3V58z M66.2,58H53.8V45.7h12.3V58z M53.1,58H40.8V45.7h12.3V58z M40,58H27.7V45.7H40V58z M27,58
	H15.8V45.7H27V58z M27,58.8v12.3H15.8V58.8H27z M27,71.9v12.3H15.8V71.9H27z M27.7,71.9H40v12.3H27.7V71.9z M40,85v11.2H27.7V85H40z
	 M40.8,85h12.3v11.2H40.8V85z M53.8,85h12.3v11.2H53.8V85z M66.9,85h12.3v11.2H66.9V85z M80,85h12.3v11.2H80V85z M80,84.2V71.9h12.3
	v12.3H80z M93,71.9h11.2v12.3H93V71.9z M93,71.1V58.8h11.2v12.3H93z M93,58V45.7h11.2V58H93z M15.8,94.9V85H27v11.2h-9.9
	C16.4,96.2,15.8,95.6,15.8,94.9z M102.9,96.2H93V85h11.2v9.9C104.2,95.6,103.6,96.2,102.9,96.2z"/>
</svg>
